<?xml version="1.0" encoding="UTF-8"?>
<svg id="Capa_1" xmlns="http://www.w3.org/2000/svg" version="1.1" viewBox="0 0 1079.4 1920">
  <!-- Generator: Adobe Illustrator 29.8.2, SVG Export Plug-In . SVG Version: 2.1.1 Build 3)  -->
  <defs>
    <style>
      .st0 {
        fill: #837fd6;
      }

      .st1 {
        fill: #5bb6e8;
      }

      .st2 {
        fill: #191919;
      }

      .st3 {
        fill: #423939;
      }
    </style>
  </defs>
  <rect class="st2" x="-.6" width="1080" height="1920"/>
  <g>
    <g>
      <path class="st1" d="M624.4,372.3l8.5,5.5c16.2,11,68.7,51.6,84.4,67.2,131.4,129.9,124.8,314-8.8,439.1-130.8,122.4-370,179.9-372.9,392.1-12.9,20.6-33.1,29.3-53.9,13.4-26.5-20.3-10.4-86-1.6-114.8,69.5-227.9,440.5-271.7,460.1-491.8,11.5-129.4-82.2-204.5-179.7-267.9-.1-3.6,64-42.8,64-42.8h0Z" style="visibility: hidden;"/>
      <path class="st0" d="M560.3,1019.7c-1.3-5.4.8-5.6,3.7-8.6,4.2-4.2,57.4-37.1,60.9-36.5,78.9,51.7,153.3,118.9,177.7,213.6,8.2,31.9,25,112-28.7,109.8-37.3-1.5-30.4-38.7-34.2-61.1-17.9-104.3-92-167.4-179.4-217.3h0Z" style="visibility: hidden;"/>
      <path class="st0" d="M518,910.4l-63.6,37.3c-129.2-80.1-220.3-205.2-177-364.3,63.1-232.2,415-273,458.3-476,6.5-30.6-4.5-74.8,33.5-83.1,62.8-13.8,38.9,95.4,28.4,127.4-73.3,223.6-443.3,266.9-459.3,492.6-7.6,107.5,59,173.7,137.8,232.2,10.6,7.8,30.2,17.3,38.2,25.3,2.9,2.9,5,3.2,3.7,8.6h0Z" style="visibility: hidden;"/>
    </g>
    <g>
      <path class="st0" d="M619.4,974.2c6.5-1.6,8.2.1,13.5,2.6,18.1,8.8,68.7,51.7,84.4,67.2,131.4,129.9,124.8,314-8.8,439.1-130.8,122.4-370,179.9-372.9,392.1-12.9,20.6-33.1,29.3-53.9,13.4-26.5-20.3-10.4-86-1.6-114.8,69.5-227.9,440.5-271.7,460.1-491.8,11.5-129.4-82.2-204.5-179.7-267.9-.1-3.6,55.2-39,59-40h0Z" style="visibility: hidden;"/>
      <path class="st1" d="M522.6,1506.8l-68.2,40.1c-129.2-80.1-220.3-205.2-177-364.3,63.1-232.2,415-273,458.3-476,6.5-30.6-4.5-74.8,33.5-83.1,62.8-13.8,38.9,95.5,28.4,127.4-73.3,223.6-443.3,266.9-459.3,492.6-7.6,107.5,59,173.7,137.8,232.2,10.6,7.8,28.4,18.4,38.2,25.3l8.3,5.9Z" style="visibility: hidden;"/>
      <path class="st0" d="M304.8,622.8c36.7,1,30.3,34,33.9,56,18.2,113.3,91.8,163.8,179.3,226.1,0,3.4-52.5,37.2-56.6,38.8-10.8,4.2-32.2-14.5-41.8-21.5-69.4-50.4-131.9-121.7-147.3-208.7-5.5-30.9-16.4-92,32.5-90.7Z" style="visibility: hidden;"/>
    </g>
    <path class="st0" d="M494.3,484.3h94.4c11.5,0,20.8,9.3,20.8,20.9h0c0,11.5-9.3,20.8-20.8,20.8h-94.4c-11.5,0-20.9-9.3-20.9-20.9h0c0-11.5,9.3-20.8,20.9-20.8Z" style="visibility: hidden;"/>
    <rect class="st0" x="373.5" y="592.9" width="331.3" height="41.7" rx="20.8" ry="20.8" style="visibility: hidden;"/>
    <rect class="st0" x="373.5" y="696.3" width="331.3" height="41.7" rx="20.8" ry="20.8" style="visibility: hidden;"/>
    <rect class="st0" x="473.5" y="805" width="136.1" height="41.7" rx="20.8" ry="20.8" style="visibility: hidden;"/>
    <path class="st1" d="M494.3,1060.6h94.4c11.5,0,20.8,9.3,20.8,20.8h0c0,11.5-9.3,20.8-20.8,20.8h-94.4c-11.5,0-20.9-9.3-20.9-20.8h0c0-11.5,9.3-20.8,20.9-20.8Z" style="visibility: hidden;"/>
    <path class="st1" d="M394.4,1169.2h289.6c11.5,0,20.8,9.3,20.8,20.8h0c0,11.5-9.3,20.8-20.8,20.8h-289.6c-11.5,0-20.9-9.3-20.9-20.8h0c0-11.5,9.3-20.8,20.9-20.8Z" style="visibility: hidden;"/>
    <path class="st1" d="M394.4,1272.6h289.6c11.5,0,20.8,9.3,20.8,20.8h0c0,11.5-9.3,20.8-20.8,20.8h-289.6c-11.5,0-20.9-9.3-20.9-20.8h0c0-11.5,9.3-20.8,20.9-20.8Z" style="visibility: hidden;"/>
    <path class="st1" d="M494.3,1381.3h94.4c11.5,0,20.8,9.3,20.8,20.8h0c0,11.5-9.3,20.8-20.8,20.8h-94.4c-11.5,0-20.9-9.3-20.9-20.8h0c0-11.5,9.3-20.8,20.9-20.8Z" style="visibility: hidden;"/>
  </g>
  <rect class="st3" x="1613" y="560.2" width="2.3" height="4.5"/>
</svg>