<?xml version="1.0" encoding="UTF-8"?>
<svg id="Capa_1" data-name="Capa 1" xmlns="http://www.w3.org/2000/svg" viewBox="0 0 808.12 408.69">
  <defs>
    <style>
      .cls-1 {
        fill: #837fd6;
      }

      .cls-2 {
        fill: #5bb6e8;
      }
    </style>
  </defs>
  <g>
    <g>
      <path class="cls-2" d="M78.06,76.17l1.85,1.19c3.53,2.4,14.98,11.26,18.41,14.66,28.66,28.32,27.22,68.49-1.93,95.76-28.54,26.7-80.69,39.25-81.33,85.53-2.81,4.5-7.23,6.4-11.76,2.92-5.78-4.43-2.27-18.76-.36-25.03,15.17-49.7,96.07-59.26,100.34-107.27,2.51-28.22-17.93-44.61-39.19-58.43-.03-.78,13.95-9.33,13.95-9.33Z"/>
      <path class="cls-1" d="M64.1,217.36c-.28-1.17.18-1.23.81-1.87.92-.92,12.51-8.1,13.28-7.97,17.21,11.27,33.43,25.93,38.75,46.59,1.79,6.97,5.46,24.42-6.25,23.96-8.14-.32-6.63-8.45-7.46-13.32-3.9-22.76-20.06-36.51-39.12-47.39Z"/>
      <path class="cls-1" d="M54.86,193.52l-13.88,8.15C12.79,184.19-7.06,156.91,2.38,122.21c13.77-50.64,90.52-59.54,99.95-103.82,1.42-6.68-.99-16.3,7.31-18.13,13.7-3.01,8.47,20.82,6.19,27.78-15.99,48.78-96.69,58.21-100.17,107.45-1.66,23.45,12.88,37.88,30.06,50.65,2.3,1.71,6.58,3.78,8.33,5.51.64.64,1.09.71.81,1.87Z"/>
    </g>
    <g>
      <path class="cls-1" d="M76.98,207.45c1.42-.35,1.8.02,2.93.58,3.95,1.92,14.98,11.26,18.41,14.66,28.66,28.32,27.22,68.49-1.93,95.76S15.71,357.69,15.07,403.98c-2.81,4.5-7.23,6.4-11.76,2.92-5.78-4.43-2.27-18.76-.36-25.03,15.17-49.7,96.07-59.26,100.34-107.27,2.51-28.22-17.93-44.61-39.19-58.43-.03-.78,12.03-8.5,12.87-8.71Z"/>
      <path class="cls-2" d="M55.87,323.6l-14.89,8.74c-28.19-17.48-48.04-44.76-38.6-79.46,13.77-50.64,90.52-59.54,99.95-103.82,1.42-6.68-.99-16.3,7.31-18.13,13.7-3.01,8.47,20.82,6.19,27.78-15.99,48.78-96.69,58.21-100.17,107.45-1.66,23.45,12.88,37.88,30.06,50.65,2.3,1.71,6.19,4.01,8.33,5.51l1.81,1.28Z"/>
      <path class="cls-1" d="M8.36,130.79c8,.21,6.62,7.42,7.39,12.22,3.97,24.71,20.01,35.73,39.11,49.31,0,.75-11.45,8.12-12.34,8.47-2.36.91-7.02-3.17-9.11-4.69-15.14-11-28.76-26.53-32.14-45.53-1.2-6.74-3.59-20.06,7.09-19.78Z"/>
    </g>
    <rect class="cls-1" x="45.15" y="100.59" width="29.69" height="9.09" rx="4.55" ry="4.55"/>
    <rect class="cls-1" x="23.35" y="124.29" width="72.25" height="9.09" rx="4.55" ry="4.55"/>
    <rect class="cls-1" x="23.35" y="146.83" width="72.25" height="9.09" rx="4.55" ry="4.55"/>
    <rect class="cls-1" x="45.15" y="170.53" width="29.69" height="9.09" rx="4.55" ry="4.55"/>
    <rect class="cls-2" x="45.15" y="226.29" width="29.69" height="9.09" rx="4.55" ry="4.55"/>
    <rect class="cls-2" x="23.35" y="249.99" width="72.25" height="9.09" rx="4.55" ry="4.55"/>
    <rect class="cls-2" x="23.35" y="272.53" width="72.25" height="9.09" rx="4.55" ry="4.55"/>
    <rect class="cls-2" x="45.15" y="296.23" width="29.69" height="9.09" rx="4.55" ry="4.55"/>
  </g>
  <g>
    <path class="cls-1" d="M140.82,222.66V90.81h64.41c16.57,0,29.03,3.14,37.39,9.42,8.35,6.28,12.52,14.57,12.52,24.86,0,6.91-1.7,12.9-5.09,17.99-3.39,5.08-8.04,9.01-13.94,11.77-5.9,2.76-12.68,4.14-20.34,4.14l3.58-7.72c8.29,0,15.63,1.35,22.04,4.05,6.4,2.7,11.39,6.69,14.97,11.96s5.37,11.74,5.37,19.4c0,11.3-4.46,20.12-13.37,26.46-8.92,6.34-22.04,9.51-39.36,9.51h-68.18ZM171.14,199.68h35.6c7.91,0,13.9-1.29,17.99-3.86,4.08-2.57,6.12-6.69,6.12-12.34s-2.04-9.63-6.12-12.34c-4.08-2.7-10.08-4.05-17.99-4.05h-37.86v-22.22h32.58c7.41,0,13.09-1.29,17.05-3.86,3.96-2.57,5.93-6.5,5.93-11.77s-1.98-9.01-5.93-11.58c-3.96-2.57-9.64-3.86-17.05-3.86h-30.32v85.89Z"/>
    <path d="M331.05,224.16c-10.8,0-20.37-2.26-28.72-6.78-8.35-4.52-14.94-10.7-19.78-18.55-4.83-7.85-7.25-16.79-7.25-26.84s2.42-19.18,7.25-27.03c4.83-7.85,11.42-14,19.78-18.46,8.35-4.46,17.92-6.69,28.72-6.69s20.21,2.23,28.63,6.69c8.41,4.46,15,10.58,19.78,18.36,4.77,7.79,7.16,16.83,7.16,27.12s-2.39,18.99-7.16,26.84c-4.77,7.85-11.37,14.03-19.78,18.55-8.41,4.52-17.96,6.78-28.63,6.78ZM331.05,200.05c4.9,0,9.29-1.13,13.18-3.39,3.89-2.26,6.97-5.49,9.23-9.7,2.26-4.21,3.39-9.2,3.39-14.97s-1.13-10.92-3.39-15.07c-2.26-4.14-5.34-7.35-9.23-9.61-3.89-2.26-8.29-3.39-13.18-3.39s-9.29,1.13-13.18,3.39c-3.89,2.26-7,5.46-9.32,9.61-2.32,4.14-3.48,9.17-3.48,15.07s1.16,10.77,3.48,14.97c2.32,4.21,5.43,7.44,9.32,9.7,3.89,2.26,8.29,3.39,13.18,3.39Z"/>
    <path d="M394.14,143.93v-22.6h70.25v22.6h-70.25ZM447.63,224.16c-11.93,0-21.22-3.04-27.88-9.13-6.66-6.09-9.98-15.16-9.98-27.22v-88.9h29.38v88.52c0,4.27,1.13,7.57,3.39,9.89,2.26,2.32,5.34,3.48,9.23,3.48,4.64,0,8.6-1.25,11.87-3.77l7.91,20.72c-3.01,2.14-6.62,3.74-10.83,4.8-4.21,1.06-8.57,1.6-13.09,1.6Z"/>
    <path d="M502.82,107.2c-5.4,0-9.79-1.57-13.18-4.71-3.39-3.14-5.08-7.03-5.08-11.68s1.69-8.54,5.08-11.68c3.39-3.14,7.78-4.71,13.18-4.71s9.79,1.48,13.18,4.43c3.39,2.95,5.09,6.75,5.09,11.4,0,4.9-1.67,8.95-4.99,12.15-3.33,3.2-7.75,4.8-13.28,4.8ZM488.13,222.66v-101.33h29.38v101.33h-29.38Z"/>
    <path d="M544.82,222.66V82.9h29.38v139.75h-29.38Z"/>
    <path d="M614.32,260.7c-5.27,0-10.49-.82-15.63-2.45-5.15-1.63-9.36-3.89-12.62-6.78l10.74-20.91c2.26,2.01,4.86,3.58,7.82,4.71,2.95,1.13,5.87,1.7,8.76,1.7,4.14,0,7.44-.97,9.89-2.92,2.45-1.95,4.68-5.18,6.69-9.7l5.27-12.43,2.26-3.2,36.35-87.39h28.25l-45.77,107.54c-3.27,8.16-7,14.56-11.21,19.21-4.21,4.64-8.85,7.91-13.94,9.79-5.09,1.88-10.71,2.83-16.86,2.83ZM631.64,226.61l-45.2-105.28h30.32l35.03,84.75-20.15,20.53Z"/>
    <path d="M697.56,222.66l45.39-59.52-.57,16.2-43.51-58.01h32.96l27.5,37.86-12.43.38,28.44-38.23h31.27l-43.7,57.45v-15.82l45.2,59.71h-33.34l-28.82-40.31,12.24,1.7-28.63,38.61h-32.02Z"/>
  </g>
  <g>
    <path d="M139.6,325.64v-62h22.23c7.79,0,13.91,1.83,18.33,5.49,4.43,3.66,6.64,8.8,6.64,15.41,0,4.31-1,8.01-3.01,11.12-2.01,3.1-4.87,5.49-8.59,7.17-3.72,1.68-8.18,2.52-13.37,2.52h-19.75l2.04-2.13v22.41h-4.52ZM144.11,303.5l-2.04-2.12h19.75c6.67,0,11.74-1.48,15.19-4.43,3.45-2.95,5.18-7.09,5.18-12.4s-1.73-9.52-5.18-12.44-8.52-4.38-15.19-4.38h-19.75l2.04-2.21v38ZM182.64,325.64l-16.12-22.5h5.14l16.12,22.5h-5.14Z"/>
    <path d="M220.72,325.99c-4.67,0-8.78-1-12.36-3.01-3.57-2.01-6.38-4.78-8.41-8.33s-3.06-7.59-3.06-12.13.96-8.67,2.88-12.18c1.92-3.51,4.56-6.27,7.93-8.28,3.37-2.01,7.14-3.01,11.34-3.01s7.96.97,11.29,2.92c3.33,1.95,5.96,4.68,7.88,8.19,1.92,3.51,2.88,7.57,2.88,12.18,0,.18-.02.37-.04.58-.03.21-.04.43-.04.66h-40.83v-3.45h38.44l-1.77,1.68c.06-3.6-.7-6.83-2.26-9.7-1.57-2.86-3.68-5.11-6.33-6.73-2.66-1.62-5.73-2.44-9.21-2.44s-6.48.81-9.17,2.44c-2.69,1.62-4.8,3.87-6.33,6.73-1.54,2.86-2.3,6.13-2.3,9.79v.8c0,3.78.84,7.13,2.52,10.05s4,5.2,6.95,6.82c2.95,1.62,6.32,2.44,10.1,2.44,2.95,0,5.71-.53,8.28-1.59s4.74-2.69,6.51-4.87l2.57,2.92c-2.01,2.48-4.53,4.35-7.57,5.62-3.04,1.27-6.33,1.9-9.88,1.9Z"/>
    <path d="M273.16,325.99c-4.49,0-8.49-1-12-3.01-3.51-2.01-6.29-4.78-8.33-8.33s-3.06-7.59-3.06-12.13,1.02-8.68,3.06-12.22,4.81-6.3,8.33-8.28c3.51-1.98,7.51-2.97,12-2.97,3.72,0,7.1.71,10.14,2.13,3.04,1.42,5.5,3.54,7.4,6.38l-3.28,2.39c-1.65-2.36-3.72-4.1-6.2-5.23-2.48-1.12-5.17-1.68-8.06-1.68-3.6,0-6.83.81-9.7,2.44-2.86,1.62-5.11,3.9-6.73,6.82s-2.44,6.33-2.44,10.23.81,7.31,2.44,10.23,3.87,5.2,6.73,6.82c2.86,1.62,6.1,2.44,9.7,2.44,2.89,0,5.58-.56,8.06-1.68,2.48-1.12,4.55-2.86,6.2-5.23l3.28,2.39c-1.89,2.83-4.36,4.96-7.4,6.38-3.04,1.42-6.42,2.13-10.14,2.13Z"/>
    <path d="M322.75,325.99c-3.96,0-7.38-.72-10.27-2.17-2.89-1.45-5.12-3.63-6.69-6.55-1.57-2.92-2.35-6.54-2.35-10.85v-27.01h4.43v26.66c0,5.2,1.33,9.15,3.99,11.87s6.41,4.07,11.25,4.07c3.48,0,6.49-.74,9.03-2.21,2.54-1.48,4.49-3.56,5.85-6.24,1.36-2.69,2.04-5.86,2.04-9.52v-24.62h4.43v46.23h-4.25v-12.84l.62,1.51c-1.36,3.6-3.62,6.45-6.78,8.55-3.16,2.1-6.92,3.14-11.29,3.14Z"/>
    <path d="M382.01,325.99c-4.67,0-8.78-1-12.36-3.01-3.57-2.01-6.38-4.78-8.41-8.33s-3.06-7.59-3.06-12.13.96-8.67,2.88-12.18c1.92-3.51,4.56-6.27,7.93-8.28,3.37-2.01,7.14-3.01,11.34-3.01s7.96.97,11.29,2.92c3.33,1.95,5.96,4.68,7.88,8.19,1.92,3.51,2.88,7.57,2.88,12.18,0,.18-.02.37-.04.58-.03.21-.04.43-.04.66h-40.83v-3.45h38.44l-1.77,1.68c.06-3.6-.7-6.83-2.26-9.7-1.57-2.86-3.68-5.11-6.33-6.73-2.66-1.62-5.73-2.44-9.21-2.44s-6.48.81-9.17,2.44c-2.69,1.62-4.8,3.87-6.33,6.73-1.54,2.86-2.3,6.13-2.3,9.79v.8c0,3.78.84,7.13,2.52,10.05s4,5.2,6.95,6.82c2.95,1.62,6.32,2.44,10.1,2.44,2.95,0,5.71-.53,8.28-1.59s4.74-2.69,6.51-4.87l2.57,2.92c-2.01,2.48-4.53,4.35-7.57,5.62-3.04,1.27-6.33,1.9-9.88,1.9Z"/>
    <path d="M416.1,325.64v-46.23h4.25v12.67l-.44-1.42c1.3-3.72,3.48-6.58,6.55-8.59,3.07-2.01,6.91-3.01,11.51-3.01v4.34c-.18,0-.35-.01-.53-.04-.18-.03-.35-.04-.53-.04-5.14,0-9.15,1.61-12.05,4.83-2.89,3.22-4.34,7.69-4.34,13.42v24.09h-4.43Z"/>
    <path d="M467.56,325.99c-4.31,0-8.19-.99-11.65-2.97-3.45-1.98-6.19-4.74-8.19-8.28-2.01-3.54-3.01-7.62-3.01-12.22s1-8.75,3.01-12.27c2.01-3.51,4.74-6.26,8.19-8.24,3.45-1.98,7.34-2.97,11.65-2.97,4.07,0,7.75.95,11.03,2.83s5.88,4.58,7.79,8.06c1.92,3.48,2.88,7.68,2.88,12.58s-.95,8.95-2.83,12.49c-1.89,3.54-4.47,6.26-7.75,8.15s-6.98,2.83-11.12,2.83ZM467.83,322.01c3.54,0,6.72-.81,9.52-2.44,2.8-1.62,5.02-3.91,6.64-6.86,1.62-2.95,2.44-6.35,2.44-10.19s-.81-7.31-2.44-10.23c-1.62-2.92-3.84-5.19-6.64-6.82-2.8-1.62-5.98-2.44-9.52-2.44s-6.72.81-9.52,2.44c-2.81,1.62-5.02,3.9-6.64,6.82-1.62,2.92-2.44,6.33-2.44,10.23s.81,7.23,2.44,10.19c1.62,2.95,3.84,5.24,6.64,6.86,2.8,1.62,5.98,2.44,9.52,2.44ZM486.52,325.64v-15.15l.8-8.06-.89-8.06v-34.45h4.43v65.72h-4.34Z"/>
    <path d="M522.03,325.99c-3.42,0-6.39-.55-8.9-1.64-2.51-1.09-4.43-2.64-5.76-4.65-1.33-2.01-1.99-4.31-1.99-6.91,0-2.36.55-4.5,1.64-6.42,1.09-1.92,2.91-3.48,5.45-4.69,2.54-1.21,5.93-1.82,10.19-1.82h17v3.45h-16.92c-4.78,0-8.13.89-10.05,2.66-1.92,1.77-2.88,3.99-2.88,6.64,0,2.95,1.12,5.31,3.37,7.08,2.24,1.77,5.4,2.66,9.48,2.66s7.19-.89,9.88-2.66c2.69-1.77,4.68-4.34,5.98-7.71l1.24,3.01c-1.24,3.37-3.35,6.04-6.33,8.01-2.98,1.98-6.78,2.97-11.38,2.97ZM538.68,325.64v-10.54l-.18-1.59v-17.36c0-4.31-1.17-7.59-3.5-9.83-2.33-2.24-5.74-3.37-10.23-3.37-3.19,0-6.16.55-8.9,1.64-2.75,1.09-5.09,2.5-7.04,4.21l-2.21-3.19c2.3-2.07,5.08-3.68,8.33-4.83,3.25-1.15,6.64-1.73,10.19-1.73,5.73,0,10.13,1.45,13.2,4.34,3.07,2.89,4.61,7.2,4.61,12.93v29.32h-4.25Z"/>
    <path d="M583.94,342.82v-63.42h4.25v15.15l-.71,8.06.89,8.06v32.15h-4.43ZM607.15,325.99c-4.07,0-7.75-.94-11.03-2.83-3.28-1.89-5.88-4.59-7.79-8.1-1.92-3.51-2.88-7.69-2.88-12.53s.96-9.02,2.88-12.53c1.92-3.51,4.52-6.21,7.79-8.1,3.28-1.89,6.95-2.83,11.03-2.83,4.37,0,8.28.99,11.74,2.97,3.45,1.98,6.17,4.74,8.15,8.28,1.98,3.54,2.97,7.62,2.97,12.22s-.99,8.68-2.97,12.22c-1.98,3.54-4.69,6.3-8.15,8.28-3.45,1.98-7.37,2.97-11.74,2.97ZM606.88,322.01c3.54,0,6.73-.81,9.57-2.44,2.83-1.62,5.06-3.91,6.69-6.86,1.62-2.95,2.44-6.35,2.44-10.19s-.81-7.31-2.44-10.23-3.85-5.19-6.69-6.82c-2.83-1.62-6.02-2.44-9.57-2.44s-6.72.81-9.52,2.44c-2.8,1.62-5.02,3.9-6.64,6.82-1.62,2.92-2.44,6.33-2.44,10.23s.81,7.23,2.44,10.19c1.62,2.95,3.84,5.24,6.64,6.86,2.8,1.62,5.98,2.44,9.52,2.44Z"/>
    <path d="M661.79,325.99c-4.43,0-8.37-1-11.82-3.01-3.45-2.01-6.2-4.78-8.24-8.33s-3.06-7.59-3.06-12.13,1.02-8.67,3.06-12.18c2.04-3.51,4.78-6.27,8.24-8.28,3.45-2.01,7.4-3.01,11.82-3.01s8.38,1,11.87,3.01c3.48,2.01,6.23,4.77,8.24,8.28,2.01,3.51,3.01,7.57,3.01,12.18s-1,8.59-3.01,12.13c-2.01,3.54-4.75,6.32-8.24,8.33-3.48,2.01-7.44,3.01-11.87,3.01ZM661.79,322.01c3.54,0,6.73-.81,9.57-2.44,2.83-1.62,5.05-3.91,6.64-6.86,1.59-2.95,2.39-6.35,2.39-10.19s-.8-7.31-2.39-10.23c-1.59-2.92-3.81-5.19-6.64-6.82-2.83-1.62-6.02-2.44-9.57-2.44s-6.72.81-9.52,2.44c-2.81,1.62-5.02,3.9-6.64,6.82-1.62,2.92-2.44,6.33-2.44,10.23s.81,7.23,2.44,10.19c1.62,2.95,3.84,5.24,6.64,6.86,2.8,1.62,5.98,2.44,9.52,2.44Z"/>
    <path d="M698.64,325.64v-46.23h4.25v12.67l-.44-1.42c1.3-3.72,3.48-6.58,6.55-8.59,3.07-2.01,6.91-3.01,11.51-3.01v4.34c-.18,0-.35-.01-.53-.04-.18-.03-.35-.04-.53-.04-5.14,0-9.15,1.61-12.05,4.83-2.89,3.22-4.34,7.69-4.34,13.42v24.09h-4.43Z"/>
    <path class="cls-1" d="M748.68,283.22v-3.81h27.63v3.81h-27.63ZM769.76,325.99c-4.07,0-7.19-1.12-9.34-3.37-2.16-2.24-3.23-5.31-3.23-9.21v-44.11h4.43v43.67c0,2.95.74,5.23,2.21,6.82,1.47,1.59,3.6,2.39,6.38,2.39s5.28-.86,7.17-2.57l1.86,3.1c-1.18,1.12-2.61,1.95-4.3,2.48-1.68.53-3.41.8-5.18.8Z"/>
    <path class="cls-1" d="M793.76,268.16c-1,0-1.86-.35-2.57-1.06s-1.06-1.54-1.06-2.48c0-1,.35-1.86,1.06-2.57.71-.71,1.56-1.06,2.57-1.06,1.06,0,1.93.34,2.61,1.02.68.68,1.02,1.52,1.02,2.52s-.34,1.86-1.02,2.57c-.68.71-1.55,1.06-2.61,1.06ZM791.54,325.64v-46.23h4.43v46.23h-4.43Z"/>
  </g>
</svg>