<?xml version="1.0" encoding="UTF-8"?>
<svg id="Capa_1" xmlns="http://www.w3.org/2000/svg" version="1.1" viewBox="0 0 808.3 408.7">
  <!-- Generator: Adobe Illustrator 29.8.2, SVG Export Plug-In . SVG Version: 2.1.1 Build 3)  -->
  <defs>
    <style>
      .st0 {
        fill: #837fd6;
      }

      .st1 {
        fill: #5bb6e8;
      }
    </style>
  </defs>
  <g>
    <path class="st0" d="M141.1,226.9V95.1h64.4c16.6,0,29,3.1,37.4,9.4,8.4,6.3,12.5,14.6,12.5,24.9s-1.7,12.9-5.1,18c-3.4,5.1-8,9-13.9,11.8-5.9,2.8-12.7,4.1-20.3,4.1l3.6-7.7c8.3,0,15.6,1.4,22,4.1,6.4,2.7,11.4,6.7,15,12,3.6,5.3,5.4,11.7,5.4,19.4,0,11.3-4.5,20.1-13.4,26.5-8.9,6.3-22,9.5-39.4,9.5h-68.2ZM171.4,204h35.6c7.9,0,13.9-1.3,18-3.9,4.1-2.6,6.1-6.7,6.1-12.3s-2-9.6-6.1-12.3c-4.1-2.7-10.1-4.1-18-4.1h-37.9v-22.2h32.6c7.4,0,13.1-1.3,17.1-3.9s5.9-6.5,5.9-11.8-2-9-5.9-11.6c-4-2.6-9.6-3.9-17.1-3.9h-30.3v85.9h0Z"/>
    <path class="st0" d="M331.3,228.4c-10.8,0-20.4-2.3-28.7-6.8s-14.9-10.7-19.8-18.6c-4.8-7.9-7.2-16.8-7.2-26.8s2.4-19.2,7.2-27,11.4-14,19.8-18.5c8.4-4.5,17.9-6.7,28.7-6.7s20.2,2.2,28.6,6.7c8.4,4.5,15,10.6,19.8,18.4,4.8,7.8,7.2,16.8,7.2,27.1s-2.4,19-7.2,26.8c-4.8,7.9-11.4,14-19.8,18.6s-18,6.8-28.6,6.8h0ZM331.3,204.4c4.9,0,9.3-1.1,13.2-3.4,3.9-2.3,7-5.5,9.2-9.7,2.3-4.2,3.4-9.2,3.4-15s-1.1-10.9-3.4-15.1c-2.3-4.1-5.3-7.4-9.2-9.6s-8.3-3.4-13.2-3.4-9.3,1.1-13.2,3.4c-3.9,2.3-7,5.5-9.3,9.6-2.3,4.1-3.5,9.2-3.5,15.1s1.2,10.8,3.5,15c2.3,4.2,5.4,7.4,9.3,9.7s8.3,3.4,13.2,3.4Z"/>
    <path class="st0" d="M394.4,148.2v-22.6h70.2v22.6h-70.2ZM447.9,228.4c-11.9,0-21.2-3-27.9-9.1-6.7-6.1-10-15.2-10-27.2v-88.9h29.4v88.5c0,4.3,1.1,7.6,3.4,9.9,2.3,2.3,5.3,3.5,9.2,3.5s8.6-1.2,11.9-3.8l7.9,20.7c-3,2.1-6.6,3.7-10.8,4.8s-8.6,1.6-13.1,1.6h0Z"/>
    <path class="st0" d="M503,111.5c-5.4,0-9.8-1.6-13.2-4.7-3.4-3.1-5.1-7-5.1-11.7s1.7-8.5,5.1-11.7c3.4-3.1,7.8-4.7,13.2-4.7s9.8,1.5,13.2,4.4,5.1,6.8,5.1,11.4-1.7,8.9-5,12.2c-3.3,3.2-7.8,4.8-13.3,4.8h0ZM488.4,226.9v-101.3h29.4v101.3h-29.4Z"/>
    <path class="st0" d="M545,226.9V87.2h29.4v139.8h-29.4Z"/>
    <path class="st0" d="M614.5,265c-5.3,0-10.5-.8-15.6-2.5-5.2-1.6-9.4-3.9-12.6-6.8l10.7-20.9c2.3,2,4.9,3.6,7.8,4.7,3,1.1,5.9,1.7,8.8,1.7,4.1,0,7.4-1,9.9-2.9s4.7-5.2,6.7-9.7l5.3-12.4,2.3-3.2,36.3-87.4h28.2l-45.8,107.5c-3.3,8.2-7,14.6-11.2,19.2-4.2,4.6-8.8,7.9-13.9,9.8s-10.7,2.8-16.9,2.8ZM631.9,230.9l-45.2-105.3h30.3l35,84.8-20.2,20.5Z"/>
    <path class="st0" d="M697.8,226.9l45.4-59.5-.6,16.2-43.5-58h33l27.5,37.9-12.4.4,28.4-38.2h31.3l-43.7,57.4v-15.8l45.2,59.7h-33.3l-28.8-40.3,12.2,1.7-28.6,38.6h-32,0Z"/>
  </g>
  <g>
    <path class="st1" d="M141.1,329.9v-62h22.2c7.8,0,13.9,1.8,18.3,5.5,4.4,3.7,6.6,8.8,6.6,15.4s-1,8-3,11.1c-2,3.1-4.9,5.5-8.6,7.2-3.7,1.7-8.2,2.5-13.4,2.5h-19.8l2-2.1v22.4h-4.5ZM145.6,307.8l-2-2.1h19.8c6.7,0,11.7-1.5,15.2-4.4,3.4-3,5.2-7.1,5.2-12.4s-1.7-9.5-5.2-12.4-8.5-4.4-15.2-4.4h-19.8l2-2.2v38h0ZM184.1,329.9l-16.1-22.5h5.1l16.1,22.5h-5.1Z"/>
    <path class="st1" d="M222.2,330.3c-4.7,0-8.8-1-12.4-3-3.6-2-6.4-4.8-8.4-8.3s-3.1-7.6-3.1-12.1,1-8.7,2.9-12.2c1.9-3.5,4.6-6.3,7.9-8.3s7.1-3,11.3-3,8,1,11.3,2.9c3.3,2,6,4.7,7.9,8.2s2.9,7.6,2.9,12.2,0,.4,0,.6c0,.2,0,.4,0,.7h-40.8v-3.5h38.4l-1.8,1.7c0-3.6-.7-6.8-2.3-9.7-1.6-2.9-3.7-5.1-6.3-6.7-2.7-1.6-5.7-2.4-9.2-2.4s-6.5.8-9.2,2.4c-2.7,1.6-4.8,3.9-6.3,6.7-1.5,2.9-2.3,6.1-2.3,9.8v.8c0,3.8.8,7.1,2.5,10s4,5.2,6.9,6.8,6.3,2.4,10.1,2.4,5.7-.5,8.3-1.6,4.7-2.7,6.5-4.9l2.6,2.9c-2,2.5-4.5,4.4-7.6,5.6-3,1.3-6.3,1.9-9.9,1.9h0Z"/>
    <path class="st1" d="M274.6,330.3c-4.5,0-8.5-1-12-3s-6.3-4.8-8.3-8.3-3.1-7.6-3.1-12.1,1-8.7,3.1-12.2,4.8-6.3,8.3-8.3c3.5-2,7.5-3,12-3s7.1.7,10.1,2.1,5.5,3.5,7.4,6.4l-3.3,2.4c-1.6-2.4-3.7-4.1-6.2-5.2-2.5-1.1-5.2-1.7-8.1-1.7s-6.8.8-9.7,2.4c-2.9,1.6-5.1,3.9-6.7,6.8s-2.4,6.3-2.4,10.2.8,7.3,2.4,10.2,3.9,5.2,6.7,6.8c2.9,1.6,6.1,2.4,9.7,2.4s5.6-.6,8.1-1.7,4.5-2.9,6.2-5.2l3.3,2.4c-1.9,2.8-4.4,5-7.4,6.4s-6.4,2.1-10.1,2.1h0Z"/>
    <path class="st1" d="M324.2,330.3c-4,0-7.4-.7-10.3-2.2-2.9-1.5-5.1-3.6-6.7-6.5-1.6-2.9-2.4-6.5-2.4-10.9v-27h4.4v26.7c0,5.2,1.3,9.1,4,11.9s6.4,4.1,11.2,4.1,6.5-.7,9-2.2c2.5-1.5,4.5-3.6,5.9-6.2,1.4-2.7,2-5.9,2-9.5v-24.6h4.4v46.2h-4.2v-12.8l.6,1.5c-1.4,3.6-3.6,6.5-6.8,8.5-3.2,2.1-6.9,3.1-11.3,3.1h0Z"/>
    <path class="st1" d="M383.5,330.3c-4.7,0-8.8-1-12.4-3-3.6-2-6.4-4.8-8.4-8.3s-3.1-7.6-3.1-12.1,1-8.7,2.9-12.2c1.9-3.5,4.6-6.3,7.9-8.3s7.1-3,11.3-3,8,1,11.3,2.9c3.3,2,6,4.7,7.9,8.2s2.9,7.6,2.9,12.2,0,.4,0,.6c0,.2,0,.4,0,.7h-40.8v-3.5h38.4l-1.8,1.7c0-3.6-.7-6.8-2.3-9.7-1.6-2.9-3.7-5.1-6.3-6.7-2.7-1.6-5.7-2.4-9.2-2.4s-6.5.8-9.2,2.4c-2.7,1.6-4.8,3.9-6.3,6.7-1.5,2.9-2.3,6.1-2.3,9.8v.8c0,3.8.8,7.1,2.5,10s4,5.2,7,6.8,6.3,2.4,10.1,2.4,5.7-.5,8.3-1.6,4.7-2.7,6.5-4.9l2.6,2.9c-2,2.5-4.5,4.4-7.6,5.6s-6.3,1.9-9.9,1.9h0Z"/>
    <path class="st1" d="M417.5,329.9v-46.2h4.2v12.7l-.4-1.4c1.3-3.7,3.5-6.6,6.5-8.6,3.1-2,6.9-3,11.5-3v4.3c-.2,0-.4,0-.5,0s-.4,0-.5,0c-5.1,0-9.1,1.6-12,4.8-2.9,3.2-4.3,7.7-4.3,13.4v24.1h-4.4,0Z"/>
    <path class="st1" d="M469,330.3c-4.3,0-8.2-1-11.6-3-3.5-2-6.2-4.7-8.2-8.3-2-3.5-3-7.6-3-12.2s1-8.8,3-12.3c2-3.5,4.7-6.3,8.2-8.2,3.5-2,7.3-3,11.6-3s7.8,1,11,2.8,5.9,4.6,7.8,8.1c1.9,3.5,2.9,7.7,2.9,12.6s-1,9-2.8,12.5c-1.9,3.5-4.5,6.3-7.8,8.1s-7,2.8-11.1,2.8h0ZM469.3,326.3c3.5,0,6.7-.8,9.5-2.4,2.8-1.6,5-3.9,6.6-6.9,1.6-3,2.4-6.4,2.4-10.2s-.8-7.3-2.4-10.2c-1.6-2.9-3.8-5.2-6.6-6.8-2.8-1.6-6-2.4-9.5-2.4s-6.7.8-9.5,2.4c-2.8,1.6-5,3.9-6.6,6.8-1.6,2.9-2.4,6.3-2.4,10.2s.8,7.2,2.4,10.2c1.6,3,3.8,5.2,6.6,6.9,2.8,1.6,6,2.4,9.5,2.4ZM488,329.9v-15.1l.8-8.1-.9-8.1v-34.5h4.4v65.7h-4.3,0Z"/>
    <path class="st1" d="M523.5,330.3c-3.4,0-6.4-.5-8.9-1.6-2.5-1.1-4.4-2.6-5.8-4.6-1.3-2-2-4.3-2-6.9s.5-4.5,1.6-6.4c1.1-1.9,2.9-3.5,5.5-4.7,2.5-1.2,5.9-1.8,10.2-1.8h17v3.5h-16.9c-4.8,0-8.1.9-10,2.7-1.9,1.8-2.9,4-2.9,6.6s1.1,5.3,3.4,7.1c2.2,1.8,5.4,2.7,9.5,2.7s7.2-.9,9.9-2.7,4.7-4.3,6-7.7l1.2,3c-1.2,3.4-3.3,6-6.3,8-3,2-6.8,3-11.4,3h0ZM540.1,329.9v-10.5l-.2-1.6v-17.4c0-4.3-1.2-7.6-3.5-9.8s-5.7-3.4-10.2-3.4-6.2.5-8.9,1.6c-2.8,1.1-5.1,2.5-7,4.2l-2.2-3.2c2.3-2.1,5.1-3.7,8.3-4.8,3.2-1.1,6.6-1.7,10.2-1.7,5.7,0,10.1,1.5,13.2,4.3,3.1,2.9,4.6,7.2,4.6,12.9v29.3h-4.3Z"/>
    <path class="st1" d="M585.4,347.1v-63.4h4.2v15.1l-.7,8.1.9,8.1v32.1h-4.4ZM608.6,330.3c-4.1,0-7.8-.9-11-2.8-3.3-1.9-5.9-4.6-7.8-8.1-1.9-3.5-2.9-7.7-2.9-12.5s1-9,2.9-12.5,4.5-6.2,7.8-8.1c3.3-1.9,7-2.8,11-2.8s8.3,1,11.7,3c3.5,2,6.2,4.7,8.2,8.3,2,3.5,3,7.6,3,12.2s-1,8.7-3,12.2-4.7,6.3-8.2,8.3c-3.5,2-7.4,3-11.7,3h0ZM608.3,326.3c3.5,0,6.7-.8,9.6-2.4,2.8-1.6,5.1-3.9,6.7-6.9,1.6-3,2.4-6.4,2.4-10.2s-.8-7.3-2.4-10.2-3.8-5.2-6.7-6.8c-2.8-1.6-6-2.4-9.6-2.4s-6.7.8-9.5,2.4c-2.8,1.6-5,3.9-6.6,6.8s-2.4,6.3-2.4,10.2.8,7.2,2.4,10.2c1.6,3,3.8,5.2,6.6,6.9s6,2.4,9.5,2.4Z"/>
    <path class="st1" d="M663.2,330.3c-4.4,0-8.4-1-11.8-3s-6.2-4.8-8.2-8.3-3.1-7.6-3.1-12.1,1-8.7,3.1-12.2c2-3.5,4.8-6.3,8.2-8.3,3.5-2,7.4-3,11.8-3s8.4,1,11.9,3c3.5,2,6.2,4.8,8.2,8.3s3,7.6,3,12.2-1,8.6-3,12.1-4.8,6.3-8.2,8.3c-3.5,2-7.4,3-11.9,3ZM663.2,326.3c3.5,0,6.7-.8,9.6-2.4,2.8-1.6,5-3.9,6.6-6.9,1.6-3,2.4-6.4,2.4-10.2s-.8-7.3-2.4-10.2-3.8-5.2-6.6-6.8c-2.8-1.6-6-2.4-9.6-2.4s-6.7.8-9.5,2.4c-2.8,1.6-5,3.9-6.6,6.8s-2.4,6.3-2.4,10.2.8,7.2,2.4,10.2c1.6,3,3.8,5.2,6.6,6.9s6,2.4,9.5,2.4Z"/>
    <path class="st1" d="M700.1,329.9v-46.2h4.2v12.7l-.4-1.4c1.3-3.7,3.5-6.6,6.5-8.6s6.9-3,11.5-3v4.3c-.2,0-.3,0-.5,0-.2,0-.3,0-.5,0-5.1,0-9.2,1.6-12,4.8-2.9,3.2-4.3,7.7-4.3,13.4v24.1h-4.4,0Z"/>
    <path class="st1" d="M750.1,287.5v-3.8h27.6v3.8h-27.6ZM771.2,330.3c-4.1,0-7.2-1.1-9.3-3.4-2.2-2.2-3.2-5.3-3.2-9.2v-44.1h4.4v43.7c0,3,.7,5.2,2.2,6.8,1.5,1.6,3.6,2.4,6.4,2.4s5.3-.9,7.2-2.6l1.9,3.1c-1.2,1.1-2.6,2-4.3,2.5-1.7.5-3.4.8-5.2.8h0Z"/>
    <path class="st1" d="M795.2,272.5c-1,0-1.9-.4-2.6-1.1s-1.1-1.5-1.1-2.5.3-1.9,1.1-2.6c.7-.7,1.6-1.1,2.6-1.1s1.9.3,2.6,1,1,1.5,1,2.5-.3,1.9-1,2.6c-.7.7-1.5,1.1-2.6,1.1h0ZM793,329.9v-46.2h4.4v46.2h-4.4Z"/>
  </g>
  <g>
    <g>
      <path class="st1" d="M78.1,76.2l1.8,1.2c3.5,2.4,15,11.3,18.4,14.7,28.7,28.3,27.2,68.5-1.9,95.8-28.5,26.7-80.7,39.2-81.3,85.5-2.8,4.5-7.2,6.4-11.8,2.9-5.8-4.4-2.3-18.8-.4-25,15.2-49.7,96.1-59.3,100.3-107.3,2.5-28.2-17.9-44.6-39.2-58.4,0-.8,13.9-9.3,13.9-9.3h0Z"/>
      <path class="st0" d="M64.1,217.4c-.3-1.2.2-1.2.8-1.9.9-.9,12.5-8.1,13.3-8,17.2,11.3,33.4,25.9,38.8,46.6,1.8,7,5.5,24.4-6.2,24-8.1-.3-6.6-8.5-7.5-13.3-3.9-22.8-20.1-36.5-39.1-47.4h0Z"/>
      <path class="st0" d="M54.9,193.5l-13.9,8.1C12.8,184.2-7.1,156.9,2.4,122.2c13.8-50.6,90.5-59.5,99.9-103.8,1.4-6.7-1-16.3,7.3-18.1,13.7-3,8.5,20.8,6.2,27.8-16,48.8-96.7,58.2-100.2,107.4-1.7,23.4,12.9,37.9,30.1,50.6,2.3,1.7,6.6,3.8,8.3,5.5.6.6,1.1.7.8,1.9h0Z"/>
    </g>
    <g>
      <path class="st0" d="M77,207.4c1.4-.4,1.8,0,2.9.6,3.9,1.9,15,11.3,18.4,14.7,28.7,28.3,27.2,68.5-1.9,95.8S15.7,357.7,15.1,404c-2.8,4.5-7.2,6.4-11.8,2.9-5.8-4.4-2.3-18.8-.4-25,15.2-49.7,96.1-59.3,100.3-107.3,2.5-28.2-17.9-44.6-39.2-58.4,0-.8,12-8.5,12.9-8.7h0Z"/>
      <path class="st1" d="M55.9,323.6l-14.9,8.7c-28.2-17.5-48-44.8-38.6-79.5,13.8-50.6,90.5-59.5,100-103.8,1.4-6.7-1-16.3,7.3-18.1,13.7-3,8.5,20.8,6.2,27.8-16,48.8-96.7,58.2-100.2,107.4-1.7,23.5,12.9,37.9,30.1,50.6,2.3,1.7,6.2,4,8.3,5.5l1.8,1.3h0Z"/>
      <path class="st0" d="M8.4,130.8c8,.2,6.6,7.4,7.4,12.2,4,24.7,20,35.7,39.1,49.3,0,.8-11.5,8.1-12.3,8.5-2.4.9-7-3.2-9.1-4.7-15.1-11-28.8-26.5-32.1-45.5-1.2-6.7-3.6-20.1,7.1-19.8Z"/>
    </g>
    <path class="st0" d="M49.7,100.6h20.6c2.5,0,4.6,2,4.6,4.5h0c0,2.5-2,4.5-4.6,4.5h-20.6c-2.5,0-4.5-2-4.5-4.5h0c0-2.5,2-4.5,4.5-4.5Z"/>
    <path class="st0" d="M27.9,124.3h63.1c2.5,0,4.6,2,4.6,4.5h0c0,2.5-2,4.5-4.6,4.5H27.9c-2.5,0-4.6-2-4.6-4.5h0c0-2.5,2-4.5,4.6-4.5Z"/>
    <path class="st0" d="M27.9,146.8h63.1c2.5,0,4.6,2,4.6,4.5h0c0,2.5-2,4.5-4.6,4.5H27.9c-2.5,0-4.6-2-4.6-4.5h0c0-2.5,2-4.5,4.6-4.5Z"/>
    <path class="st0" d="M49.7,170.5h20.6c2.5,0,4.6,2,4.6,4.5h0c0,2.5-2,4.5-4.6,4.5h-20.6c-2.5,0-4.5-2-4.5-4.5h0c0-2.5,2-4.5,4.5-4.5Z"/>
    <path class="st1" d="M49.7,226.3h20.6c2.5,0,4.6,2,4.6,4.5h0c0,2.5-2,4.5-4.6,4.5h-20.6c-2.5,0-4.5-2-4.5-4.5h0c0-2.5,2-4.5,4.5-4.5Z"/>
    <rect class="st1" x="23.4" y="250" width="72.2" height="9.1" rx="4.5" ry="4.5"/>
    <path class="st1" d="M27.9,272.5h63.1c2.5,0,4.6,2,4.6,4.5h0c0,2.5-2,4.5-4.6,4.5H27.9c-2.5,0-4.6-2-4.6-4.5h0c0-2.5,2-4.5,4.6-4.5Z"/>
    <path class="st1" d="M49.7,296.2h20.6c2.5,0,4.6,2,4.6,4.5h0c0,2.5-2,4.5-4.6,4.5h-20.6c-2.5,0-4.5-2-4.5-4.5h0c0-2.5,2-4.5,4.5-4.5Z"/>
  </g>
</svg>