<?xml version="1.0" encoding="UTF-8"?>
<svg id="Capa_1" data-name="Capa 1" xmlns="http://www.w3.org/2000/svg" viewBox="0 0 119.06 281.64">
  <defs>
    <style>
      .cls-1 {
        fill: #837fd6;
      }

      .cls-2 {
        fill: #5bb6e8;
      }
    </style>
  </defs>
  <g>
    <path class="cls-2" d="M78.06,13.06l1.85,1.19c3.53,2.4,14.98,11.26,18.41,14.66,28.66,28.32,27.22,68.49-1.93,95.76-28.54,26.7-80.69,39.25-81.33,85.53-2.81,4.5-7.23,6.4-11.76,2.92-5.78-4.43-2.27-18.76-.36-25.03,15.17-49.7,96.07-59.26,100.34-107.27,2.51-28.22-17.93-44.61-39.19-58.43-.03-.78,13.95-9.33,13.95-9.33Z"/>
    <path class="cls-1" d="M64.1,154.26c-.28-1.17.18-1.23.81-1.87.92-.92,12.51-8.1,13.28-7.97,17.21,11.27,33.43,25.93,38.75,46.59,1.79,6.97,5.46,24.42-6.25,23.96-8.14-.32-6.63-8.45-7.46-13.32-3.9-22.76-20.06-36.51-39.12-47.39Z"/>
    <path class="cls-1" d="M74.37,9.85C47.53,27.62,17.73,43.11,15.66,72.39c-1.66,23.45,12.88,37.88,30.06,50.65,2.3,1.71,6.58,3.78,8.33,5.51.64.64,1.09.71.81,1.87l-13.88,8.15C12.79,121.09-7.06,93.8,2.38,59.1,9.95,31.24,37.26,15.43,61.26,0"/>
  </g>
  <g>
    <path class="cls-1" d="M44.96,272.44c26.63-17.69,55.82-32.63,58.34-60.96,2.51-28.22-17.93-44.61-39.19-58.43-.03-.78,12.03-8.5,12.87-8.71,1.42-.35,1.8.02,2.93.58,3.95,1.92,14.98,11.26,18.41,14.66,28.66,28.32,27.22,68.49-1.93,95.76-10.95,10.24-23.99,17.52-37.65,26.3"/>
    <path class="cls-2" d="M55.87,260.49l-14.89,8.74C12.79,251.75-7.06,224.46,2.38,189.77c13.77-50.64,90.52-59.54,99.95-103.82,1.42-6.68-.99-16.3,7.31-18.13,13.7-3.01,8.47,20.82,6.19,27.78-15.99,48.78-96.69,58.21-100.17,107.45-1.66,23.45,12.88,37.88,30.06,50.65,2.3,1.71,6.19,4.01,8.33,5.51l1.81,1.28Z"/>
    <path class="cls-1" d="M8.36,67.69c8,.21,6.62,7.42,7.39,12.22,3.97,24.71,20.01,35.73,39.11,49.31,0,.75-11.45,8.12-12.34,8.47-2.36.91-7.02-3.17-9.11-4.69-15.14-11-28.76-26.53-32.14-45.53-1.2-6.74-3.59-20.06,7.09-19.78Z"/>
  </g>
  <rect class="cls-1" x="45.15" y="37.48" width="29.69" height="9.09" rx="4.55" ry="4.55"/>
  <rect class="cls-1" x="23.35" y="61.18" width="72.25" height="9.09" rx="4.55" ry="4.55"/>
  <rect class="cls-1" x="23.35" y="83.72" width="72.25" height="9.09" rx="4.55" ry="4.55"/>
  <rect class="cls-1" x="45.15" y="107.43" width="29.69" height="9.09" rx="4.55" ry="4.55"/>
  <rect class="cls-2" x="45.15" y="163.18" width="29.69" height="9.09" rx="4.55" ry="4.55"/>
  <rect class="cls-2" x="23.35" y="186.88" width="72.25" height="9.09" rx="4.55" ry="4.55"/>
  <rect class="cls-2" x="23.35" y="209.42" width="72.25" height="9.09" rx="4.55" ry="4.55"/>
  <rect class="cls-2" x="45.15" y="233.13" width="29.69" height="9.09" rx="4.55" ry="4.55"/>
</svg>